<svg width="17" height="17" viewBox="0 0 17 17" fill="none" xmlns="http://www.w3.org/2000/svg">
<path d="M8.5 6.37454V9.20787M8.5 12.0412H8.50708M7.28875 2.7337L1.28917 12.7495C1.16547 12.9638 1.10002 13.2066 1.09933 13.454C1.09863 13.7014 1.16272 13.9446 1.28522 14.1595C1.40771 14.3744 1.58435 14.5535 1.79754 14.6789C2.01074 14.8044 2.25307 14.8718 2.50042 14.8745H14.4996C14.7469 14.8718 14.9893 14.8044 15.2025 14.6789C15.4157 14.5535 15.5923 14.3744 15.7148 14.1595C15.8373 13.9446 15.9014 13.7014 15.9007 13.454C15.9 13.2066 15.8345 12.9638 15.7108 12.7495L9.71125 2.7337C9.58497 2.52553 9.40718 2.35341 9.19501 2.23396C8.98285 2.11451 8.74348 2.05176 8.5 2.05176C8.25652 2.05176 8.01715 2.11451 7.80499 2.23396C7.59282 2.35341 7.41502 2.52553 7.28875 2.7337Z" stroke="#FF0000" stroke-width="1.5" stroke-linecap="round" stroke-linejoin="round"/>
</svg>
