<svg width="19" height="20" viewBox="0 0 19 20" fill="none" xmlns="http://www.w3.org/2000/svg">
<path d="M2.79167 19H16.2083C17.2669 19 18.125 18.1046 18.125 17V3C18.125 1.89543 17.2669 1 16.2083 1H2.79167C1.73312 1 0.875 1.89543 0.875 3V17C0.875 18.1046 1.73312 19 2.79167 19ZM2.79167 19L13.3333 8L18.125 13M7.58333 6.5C7.58333 7.32843 6.93974 8 6.14583 8C5.35192 8 4.70833 7.32843 4.70833 6.5C4.70833 5.67157 5.35192 5 6.14583 5C6.93974 5 7.58333 5.67157 7.58333 6.5Z" stroke="#0E0F0F" stroke-width="1.5" stroke-linecap="round" stroke-linejoin="round"/>
</svg>
