<svg width="22" height="22" viewBox="0 0 22 22" fill="none" xmlns="http://www.w3.org/2000/svg">
<path d="M11.9165 1.83301H5.49984C5.01361 1.83301 4.54729 2.02616 4.20347 2.36998C3.85966 2.7138 3.6665 3.18011 3.6665 3.66634V18.333C3.6665 18.8192 3.85966 19.2856 4.20347 19.6294C4.54729 19.9732 5.01361 20.1663 5.49984 20.1663H16.4998C16.9861 20.1663 17.4524 19.9732 17.7962 19.6294C18.14 19.2856 18.3332 18.8192 18.3332 18.333V8.24967M11.9165 1.83301L18.3332 8.24967M11.9165 1.83301V8.24967H18.3332" stroke="white" stroke-width="1.5" stroke-linecap="round" stroke-linejoin="round"/>
<path d="M7.72363 13.606H6.77393V13.2227H7.72363C7.90755 13.2227 8.05648 13.1934 8.17041 13.1348C8.28434 13.0762 8.36735 12.9948 8.41943 12.8906C8.47314 12.7865 8.5 12.6676 8.5 12.5342C8.5 12.4121 8.47314 12.2974 8.41943 12.1899C8.36735 12.0825 8.28434 11.9963 8.17041 11.9312C8.05648 11.8644 7.90755 11.8311 7.72363 11.8311H6.88379V15H6.4126V11.4453H7.72363C7.99219 11.4453 8.21924 11.4917 8.40479 11.5845C8.59033 11.6772 8.73112 11.8058 8.82715 11.9702C8.92318 12.133 8.97119 12.3193 8.97119 12.5293C8.97119 12.7572 8.92318 12.9517 8.82715 13.1128C8.73112 13.2739 8.59033 13.3968 8.40479 13.4814C8.21924 13.5645 7.99219 13.606 7.72363 13.606ZM10.5288 15H9.78662L9.7915 14.6167H10.5288C10.7827 14.6167 10.9943 14.5638 11.1636 14.458C11.3328 14.3506 11.4598 14.2008 11.5444 14.0088C11.6307 13.8151 11.6738 13.5889 11.6738 13.3301V13.1128C11.6738 12.9093 11.6494 12.7287 11.6006 12.5708C11.5518 12.4113 11.4801 12.277 11.3857 12.168C11.2913 12.0573 11.1758 11.9735 11.0391 11.9165C10.904 11.8595 10.7485 11.8311 10.5728 11.8311H9.77197V11.4453H10.5728C10.8055 11.4453 11.0179 11.4844 11.21 11.5625C11.402 11.639 11.5672 11.7505 11.7056 11.897C11.8455 12.0418 11.953 12.2176 12.0278 12.4243C12.1027 12.6294 12.1401 12.8605 12.1401 13.1177V13.3301C12.1401 13.5872 12.1027 13.8192 12.0278 14.0259C11.953 14.231 11.8447 14.4059 11.7031 14.5508C11.5632 14.6956 11.3939 14.8071 11.1953 14.8853C10.9984 14.9618 10.7762 15 10.5288 15ZM10.0381 11.4453V15H9.56689V11.4453H10.0381ZM13.3193 11.4453V15H12.8481V11.4453H13.3193ZM14.8086 13.0444V13.4302H13.2168V13.0444H14.8086ZM15.0503 11.4453V11.8311H13.2168V11.4453H15.0503Z" fill="white"/>
</svg>
